<svg width="72" height="72" viewBox="0 0 72 72" fill="none" xmlns="http://www.w3.org/2000/svg">
<path d="M45.5686 68.1896C44.9236 68.1371 44.2786 68.0921 43.6261 68.0471C39.0362 67.7096 34.2887 67.3646 29.6012 65.6771C28.1012 65.2271 26.5787 64.5971 24.9437 63.7346C23.7213 63.0971 22.4688 62.3546 20.8788 61.3271L20.5338 61.0796C20.2188 60.8321 19.9113 60.5921 19.5963 60.3446C17.3988 58.6347 14.9088 56.7072 13.0113 54.0072C9.13385 49.2372 6.07387 43.7322 3.91388 37.6348L3.88388 37.5373C3.34388 35.8948 2.96889 34.2823 2.60139 32.7148C2.15139 30.7948 1.7239 28.9798 1.0639 27.3898C-0.121093 25.2974 -0.331092 22.8599 0.508903 20.6399C0.9589 19.4474 1.6789 18.3749 2.60139 17.4674C2.93139 15.7799 4.00388 14.3249 5.51887 13.4399C5.61637 12.3149 6.07387 11.4224 6.62886 10.7325C6.13387 9.33746 6.15637 7.88247 6.74136 6.54748C7.67886 4.39499 9.95884 3 12.5388 3C14.8113 3 16.8363 4.06499 17.9613 5.84998C18.1863 6.20998 18.3663 6.58498 18.5088 6.97498C20.1963 7.34247 21.1863 8.29497 21.7563 9.11996C21.8688 9.28496 21.9813 9.46496 22.0863 9.66746C24.1113 10.1175 25.3862 10.9575 26.1662 11.9174C26.8037 12.2324 27.3137 12.5849 27.6962 12.8549C27.8237 12.9449 28.0037 13.0724 28.0787 13.1099L29.1287 13.3724C29.4062 13.4999 29.8412 13.6574 30.3062 13.8224C32.5787 14.6474 36.3812 16.0274 37.5362 19.8149L36.0212 24.6524C34.9637 25.4924 33.6512 25.9349 32.2337 25.9349C32.0162 25.9349 31.8062 25.9274 31.6037 25.9049C31.6037 25.9649 31.6112 26.0249 31.6187 26.0849C31.9112 30.5773 32.1887 34.8298 33.6512 38.6323L33.7637 38.9548C34.4462 41.2198 36.2237 43.3122 38.1137 45.5322L38.7812 46.3197C40.6337 48.5772 43.3561 50.1672 45.5461 51.3147C47.0461 52.0122 48.7111 52.5897 50.5111 53.0397C51.7936 51.7572 53.6386 50.2797 56.1211 50.2797C57.456 50.2797 58.731 50.7222 59.811 51.5547L61.566 54.8922C61.566 54.8922 61.566 54.9297 61.566 54.9522C63.651 54.9522 66.1635 54.8397 68.196 55.1997C71.6385 55.7997 72.5985 58.5222 71.661 61.7096C71.661 61.7096 69.7935 64.2146 69.786 64.2221C68.376 65.8571 65.8935 65.8871 63.9435 65.9996C60.906 66.1796 58.3485 67.3271 55.4611 67.9046C52.3711 68.5196 49.0711 68.3246 45.9436 68.2046L45.5761 68.1896H45.5686Z" fill="white"/>
<path d="M23.3226 57.5462C20.9226 55.6562 18.3652 53.8487 16.6102 51.2988C12.9277 46.8063 10.0927 41.6013 8.15773 36.1339C6.98773 32.5789 6.58274 28.7689 5.07525 25.3489C3.49276 22.8664 5.34525 20.1514 8.06773 19.364C9.27522 19.1315 11.4052 17.9915 8.84022 18.809C6.53774 20.4964 6.31274 17.2715 8.67522 17.069C10.2877 16.8515 10.8802 15.5315 10.3327 14.3465C8.60022 13.2215 14.5327 11.9765 11.5477 10.2965C8.44272 6.94403 15.8902 6.29904 14.0527 10.109C13.6102 13.034 19.2577 9.56902 17.9527 12.9515C19.2877 14.5715 22.9401 13.319 22.8501 15.599C24.7926 15.734 25.4601 17.3615 27.2751 17.489C29.1651 18.344 32.5851 19.0115 33.2301 21.1414C31.3551 22.6264 27.0201 18.0815 26.8101 22.1839C27.3726 28.2439 27.2301 34.4914 29.4501 40.2663C30.5001 43.7613 33.0426 46.5138 35.3376 49.2363C37.535 51.9062 40.5125 53.7812 43.55 55.3637C46.2125 56.6162 49.085 57.4487 51.9799 57.9737C53.1574 57.0737 55.2349 53.7287 57.0724 55.1387C57.1624 56.7212 53.4274 58.4537 56.8999 58.2812C58.9399 57.6662 60.3499 59.8562 62.0224 57.8837C63.5674 59.7137 68.4423 56.7137 67.3474 60.4562C65.8624 61.4162 63.6949 60.8387 62.2024 62.1512C59.7499 60.9287 57.7924 63.2462 55.0774 62.9537C52.0625 63.4937 48.9875 63.7112 45.9275 63.7187C40.91 63.3212 35.7801 63.1562 31.0101 61.4087C28.3176 60.6287 25.6926 59.0987 23.3301 57.5612L23.3226 57.5462ZM27.5601 59.3837C30.1851 60.5162 32.7576 61.7162 35.6376 62.0762C40.205 62.7137 44.9225 63.6887 49.505 62.7962C47.4275 61.8587 45.2825 63.1637 43.22 62.1287C40.745 62.6612 38.0825 61.9937 35.5626 61.6637C32.6976 60.3887 29.6076 59.5112 26.9226 57.8537C23.5701 56.6312 28.6551 59.4212 29.5626 59.6537C31.6551 60.8462 27.2601 59.0462 26.6376 58.5512C24.8826 57.5687 24.6576 57.7712 26.4651 58.7687C26.8251 58.9787 27.1851 59.2037 27.5676 59.3837H27.5601ZM22.5651 55.8512C25.1076 56.7962 22.5576 54.0587 21.3876 54.2237C20.8701 53.3237 19.4152 52.7612 20.4427 52.2812C18.5902 52.9262 18.5077 49.8363 17.6377 50.2788C15.6802 49.6638 16.8727 47.4738 14.5477 46.1313C14.3377 44.7138 12.2302 43.4838 11.5627 41.3538C11.2702 40.2588 9.18522 37.1163 10.4677 40.0413C11.5552 42.8538 13.4677 45.2613 15.0652 47.6688C16.3027 49.9638 17.7652 52.3562 20.0152 53.7887C20.7726 54.5162 21.5076 55.6337 22.5801 55.8587L22.5651 55.8512ZM15.2302 47.8038C15.3202 47.4213 15.6952 48.6363 15.2302 47.8038V47.8038ZM25.6101 56.9837C24.8001 56.6687 26.1726 56.7287 25.6101 56.9837V56.9837ZM26.9901 57.4862C26.3601 57.8762 26.8476 56.7887 26.9901 57.4862V57.4862ZM28.7226 58.2062C27.4551 57.7112 29.5476 57.4187 28.7226 58.2062V58.2062ZM31.6851 59.8562C30.0801 59.5787 32.1876 59.1137 31.6851 59.8562V59.8562ZM25.9926 55.8887C24.3426 55.8737 27.2751 55.0637 25.9926 55.8887V55.8887ZM27.2901 56.5412C26.8251 56.7362 27.2526 56.1062 27.2901 56.5412V56.5412ZM33.7776 60.5837C34.8201 61.2437 39.8675 62.0237 36.7025 60.8537C36.1775 60.9662 30.8451 59.3462 33.7776 60.5837ZM23.4801 52.5662C21.8601 52.0787 23.3751 52.1312 23.4801 52.5662V52.5662ZM26.5026 54.3287C24.8751 53.9087 27.2901 53.7812 26.5026 54.3287V54.3287ZM29.0376 55.8812C27.2076 55.4537 30.1626 55.4537 29.0376 55.8812V55.8812ZM22.2576 51.2313C23.4801 52.1687 27.1926 51.3513 24.1326 50.6688C22.7376 49.9263 19.6027 49.4163 21.7401 51.1188L22.2576 51.2313ZM30.7626 56.4212C28.6251 55.9262 31.2726 55.5512 30.7626 56.4212V56.4212ZM28.1751 54.3662C31.1676 55.2137 25.6626 52.4762 27.4401 54.0512L27.8376 54.2312L28.1826 54.3662H28.1751ZM33.3576 57.3587C30.8001 56.9687 36.1926 57.3887 33.3576 57.3587V57.3587ZM21.1626 49.5888C20.4651 49.6338 21.0501 49.0638 21.1626 49.5888V49.5888ZM38.15 60.0512C37.2275 60.7637 38.225 59.0987 38.15 60.0512V60.0512ZM26.0001 52.5512C25.1151 52.5287 25.8276 52.0487 26.0001 52.5512V52.5512ZM21.4326 49.2588C19.2052 48.5388 23.0601 49.1613 21.4326 49.2588V49.2588ZM16.0252 45.7638C14.2552 44.3613 15.8227 44.9838 16.0252 45.7638V45.7638ZM30.2226 54.7712C29.9226 54.4337 30.0801 54.8462 30.2226 54.7712V54.7712ZM39.0575 60.2012C38.5775 60.3962 39.0275 59.6837 39.0575 60.2012V60.2012ZM29.4426 53.9687C28.0551 53.7662 29.6001 53.3012 29.4426 53.9687V53.9687ZM22.8576 49.7913C20.9226 48.9738 24.0651 49.6638 22.8576 49.7913V49.7913ZM33.9951 56.7137C32.1576 56.3462 35.8776 55.9637 33.9951 56.7137V56.7137ZM28.2051 52.7837C30.3801 53.0612 25.6176 51.3063 27.7251 52.6262L28.2051 52.7837ZM35.7501 57.4262C37.775 56.2112 37.1075 60.2687 39.1925 57.7712C41.2475 56.2712 37.4225 59.6237 39.95 58.0412C41.78 56.8187 44.4875 58.6187 46.19 59.2112C47.42 59.1512 48.6125 60.2762 49.8725 59.5937C52.2949 58.9412 45.1325 58.6262 47.0075 57.4637C44.7875 58.1087 43.1525 56.6912 42.0575 55.2737C39.5675 54.6962 36.695 53.4287 35.4501 51.2238C34.9476 50.3988 36.185 51.3438 35.0151 49.9863C33.5151 48.6513 32.7651 47.1363 31.7601 45.5163C30.5601 44.8713 30.4176 42.9888 30.2976 45.4563C30.3051 43.9038 28.8426 42.8538 28.4901 43.2888C28.4901 41.7888 30.0501 42.5388 28.9551 41.4288C28.7151 39.8763 27.9426 38.2563 27.7026 36.5013C27.3426 35.6539 27.6501 33.8464 26.4576 35.7589C26.0226 37.7838 26.3151 33.2764 26.9901 34.7614C27.8751 33.2464 26.6751 33.4264 26.6226 33.6364C27.2001 32.3539 26.9901 30.5389 26.4726 31.2364C26.7801 29.8789 26.9601 26.2414 26.0151 26.8864C26.5851 25.4689 27.1026 20.3989 24.6126 22.3264C23.6076 22.3414 21.8601 22.6939 21.0351 23.1064C23.6226 24.5314 20.7726 23.6239 19.7227 23.3914C19.5877 24.7114 18.5452 24.1414 17.2402 24.1564C19.3252 24.4114 16.2277 26.2864 15.0352 25.5589C13.4827 26.3014 16.3702 28.1539 15.0652 28.7239C15.2227 29.5864 12.6877 28.4089 12.8902 30.4039C11.3827 29.7739 12.6802 32.7664 13.4377 31.7539C15.9952 32.4439 15.2377 34.0264 15.3052 35.5264C14.8852 36.4038 13.2427 33.4714 14.9377 33.6064C13.6027 31.4389 13.4602 32.8189 12.3502 33.8314C12.0952 33.9064 15.1852 35.2639 13.2427 35.9388C14.9527 36.2013 14.9977 37.6938 15.3427 38.6388C16.3702 39.7038 16.1602 37.4613 17.3827 38.7438C16.6027 37.5963 13.2652 35.5189 15.9577 36.1863C15.9427 35.0314 15.4702 34.1089 16.2952 34.1314C17.1127 32.6539 15.4402 37.7688 17.2777 35.8939C17.7877 35.6689 17.9152 34.4164 18.8302 36.0139C20.1577 37.3188 19.3102 38.2638 17.4352 37.0713C17.7727 38.2113 19.9402 38.6163 19.5352 40.3938C19.9702 41.9538 20.5701 41.3838 21.1026 41.2938C21.5151 42.8163 21.7476 41.6988 21.7701 40.9713C23.6676 41.3763 23.2176 42.4938 23.8101 43.2813C25.1151 43.8738 21.9426 39.2838 24.1851 41.9013C26.5401 44.0313 25.0701 44.9163 22.9551 44.5788C24.2976 44.4738 24.7251 46.3863 26.3976 46.3188C27.9276 47.0463 28.9626 49.8363 26.3301 48.6738C25.4151 47.8488 22.1826 46.8363 24.8226 48.4038C27.2601 49.5363 29.1951 50.2113 31.5501 51.6287C33.2301 52.8287 33.9576 54.2087 34.5951 54.4787C33.1776 55.1537 30.3351 53.9387 32.4501 53.5637C31.1301 53.3237 29.6451 52.6562 30.9126 54.2987C31.9851 55.1987 34.7151 55.1012 35.2101 55.1987C34.7976 56.1137 34.0851 56.1887 35.2251 56.2562C33.9501 56.9387 35.6376 57.0437 35.7501 57.4337V57.4262ZM33.1401 50.0538C32.3601 49.2438 32.1651 47.7213 33.0051 49.0413C33.4326 49.2138 34.3851 51.5313 33.1401 50.0538ZM41.645 55.4537C41.66 55.8212 42.1325 55.4237 41.645 55.4537V55.4537ZM31.9176 48.0588C31.8876 46.8288 32.1951 49.0038 31.9176 48.0588V48.0588ZM31.0701 46.9263C30.0951 45.0363 32.3001 47.4588 31.0701 46.9263V46.9263ZM20.8326 39.8538C21.1176 40.8363 21.4101 39.7038 20.8326 39.8538V39.8538ZM28.9776 44.2713C29.3301 42.9438 29.3901 45.3813 28.9776 44.2713V44.2713ZM23.2251 40.2663C22.8201 39.5388 24.0726 40.9488 23.2251 40.2663V40.2663ZM28.1676 41.8563C27.2451 39.7788 28.8201 40.7238 28.3701 42.1938L28.1676 41.8563ZM19.6402 36.1713C19.2277 35.4889 18.5452 33.4939 18.7627 32.8864C18.9652 33.8764 20.8701 37.1613 19.7002 34.2439C18.4027 31.7989 21.2526 35.0389 21.5451 35.6464C21.6801 36.2538 20.7426 35.4814 21.3801 36.8988C20.2252 35.2789 20.6976 37.7913 19.6402 36.1713ZM17.0077 34.3564C17.1127 32.7739 17.6077 35.4439 17.0077 34.3564V34.3564ZM18.1927 34.7614C18.7552 33.5689 19.1527 36.4263 18.1927 34.7614V34.7614ZM15.3427 32.5564C14.3602 31.5814 13.6552 30.6814 15.3877 31.9489C16.0552 31.9714 13.9027 29.9089 15.5452 31.2889C17.2777 31.6039 16.4002 34.1314 15.3352 32.5489L15.3427 32.5564ZM16.8427 32.5189C17.1427 33.0739 17.4127 31.9564 16.8427 32.5189V32.5189ZM17.7652 32.8189C16.9027 31.1989 18.8152 33.4939 17.7652 32.8189V32.8189ZM15.9277 31.0639C13.0777 28.5289 19.5127 32.3914 16.3927 31.5364L15.9277 31.0639ZM24.0951 35.8114C22.8651 35.0689 23.7651 30.6064 24.1926 33.6589C25.3926 33.2689 24.1251 35.2339 25.0176 35.2189C24.8751 36.4563 24.4776 36.9063 24.0951 35.8114ZM27.1176 37.5963C27.2376 36.2463 27.3726 38.5188 27.1176 37.5963V37.5963ZM26.5926 37.0788C26.6076 37.7538 26.7276 36.5013 26.5926 37.0788V37.0788ZM16.4902 30.2314C14.6602 27.7039 21.8151 32.7889 17.6602 30.8689C17.2252 30.7564 16.7077 30.7114 16.4902 30.2314ZM22.3101 33.3139C22.1376 31.1839 22.7001 33.6664 22.3101 33.3139V33.3139ZM26.7201 36.1488C26.7426 36.9513 27.0651 34.9339 26.7201 36.1488V36.1488ZM16.7677 29.2639C17.8552 29.0314 21.2751 31.1764 18.1327 29.8789C17.7802 29.4889 17.0377 29.6689 16.7677 29.2639ZM26.1201 33.9289C26.2401 31.7539 26.7726 32.6314 26.1201 34.2439V33.9289ZM17.5777 28.5139C18.0202 27.8614 16.4002 25.5739 17.8102 27.6889C18.4177 28.1764 19.5727 28.4989 18.5527 28.7014C20.1577 30.1189 18.1627 29.0839 17.5777 28.5064V28.5139ZM25.6551 33.2464C25.9251 34.7014 25.9626 30.7714 25.6551 33.2464V33.2464ZM16.6552 26.2189C16.8352 26.6689 16.9927 26.0764 16.6552 26.2189V26.2189ZM18.7627 27.4789C19.3027 26.3389 19.7602 28.7464 18.7627 27.4789V27.4789ZM24.7026 30.7789C24.7026 30.3439 24.8151 31.4164 24.7026 30.7789V30.7789ZM24.3576 30.0214C23.5326 27.9889 25.1226 31.1014 24.3576 30.0214V30.0214ZM23.8476 28.6864C23.7126 27.8464 24.3201 29.7439 23.8476 28.6864V28.6864ZM24.6726 27.3439C24.1101 26.3464 25.3851 22.9489 25.5276 25.0564C24.9276 26.6989 25.3551 27.6139 25.7751 25.4164C26.5476 23.6839 25.6101 28.8364 24.6726 27.3439ZM25.5201 22.2964C25.5726 22.6639 25.7676 21.9964 25.5201 22.2964V22.2964ZM24.1101 50.1588C23.7726 49.8663 24.1551 50.3463 24.1101 50.1588V50.1588ZM27.0201 51.6287C28.6401 52.0412 28.6326 51.3738 27.1701 51.1788C26.3826 50.4438 23.9001 49.6713 26.1201 51.0888C26.2701 51.4638 26.7351 51.4562 27.0201 51.6287ZM21.2676 47.8113C22.1601 48.4788 24.6276 49.7013 22.5426 48.0663C23.2476 47.2488 21.1926 46.8138 21.8751 46.2663C20.1427 45.2088 20.5101 45.2988 21.7251 45.3363C19.6402 44.4063 22.0251 44.4738 21.9126 44.0013C21.1101 43.8438 17.9227 42.5838 19.7977 44.1063C17.8927 43.1313 19.3402 44.4663 18.7702 44.3238C16.8202 43.7913 20.5027 45.8088 18.4627 45.3063C19.5802 46.1913 21.4701 47.5788 18.9352 46.2438C18.5977 46.7238 20.7501 47.4513 21.2751 47.8188L21.2676 47.8113ZM24.3126 49.5588C22.4976 48.1038 28.0176 50.7513 24.3126 49.5588V49.5588ZM39.9125 59.0087C39.4025 59.6387 39.9575 58.2737 39.9125 59.0087V59.0087ZM41.51 59.6837C42.365 58.8587 41.5475 61.0037 42.9275 59.4812C42.9425 58.3937 42.8825 57.7487 41.3375 59.0687C40.91 59.3012 40.7225 60.3062 41.51 59.6837ZM16.0702 43.7013C14.2327 42.6738 15.8077 42.6663 16.0702 43.7013V43.7013ZM17.7802 44.8188C15.5152 43.8663 17.1427 43.7613 17.7802 44.8188V44.8188ZM27.5151 50.6913C28.4676 51.5388 31.8801 51.3138 28.6701 50.7963C28.1976 50.0913 25.6476 50.2638 27.5151 50.6913ZM40.9025 58.9637C39.485 59.5112 42.365 57.7337 40.9025 58.9637V58.9637ZM43.9475 61.0562C43.3175 61.2287 43.955 60.6587 43.9475 61.0562V61.0562ZM43.9475 60.5012C42.38 60.6062 45.5675 58.7837 43.9475 60.5012V60.5012ZM11.8552 40.1763C10.4752 38.2038 11.0002 37.3188 9.66522 35.7139C9.41022 34.4839 7.37773 31.6939 8.61522 34.6489C9.74772 36.3813 10.0777 39.0588 11.8552 40.1763ZM43.445 59.9537C42.2225 59.1137 46.4225 58.0262 43.445 59.9537V59.9537ZM45.7175 60.8462C44.7725 60.5762 47.21 59.5637 45.7175 60.8462V60.8462ZM15.5602 41.5263C14.4577 41.4438 15.9877 40.8888 15.5602 41.5263V41.5263ZM45.245 60.2387C46.6925 59.3087 44.915 59.4512 44.9825 60.3212L45.245 60.2387ZM25.6251 47.8713C24.8601 47.9238 25.5726 47.2413 25.6251 47.8713V47.8713ZM26.8401 48.5688C26.2476 48.6888 26.4576 47.7888 26.8401 48.5688V48.5688ZM47.5625 60.8687C49.415 59.5337 46.4375 60.6137 47.1725 61.1237L47.5625 60.8687ZM46.85 60.5237C45.26 61.0862 48.3575 59.2562 46.85 60.5237V60.5237ZM50.4725 62.9387C49.2425 62.7212 51.485 62.2637 50.4725 62.9387V62.9387ZM16.4902 41.0613C17.8477 41.3688 21.9126 44.4063 19.5127 41.2713C18.2827 40.9038 19.0177 37.9038 17.7652 38.4363C18.6052 39.8388 18.4552 40.4388 16.6927 39.5538C14.4727 38.4663 15.4477 40.0938 15.8752 40.5363C15.2827 40.6713 16.6552 41.0463 16.4827 41.0613H16.4902ZM10.3027 36.1789C10.5427 35.1739 8.06773 30.6514 9.13272 33.9139C9.51522 34.5964 9.47772 35.8939 10.3027 36.1789ZM21.6576 43.1763C20.9601 42.5913 21.6276 43.0938 21.6576 43.1763V43.1763ZM23.3751 43.5813C21.4701 43.1463 23.3751 42.5163 23.3751 43.5813V43.5813ZM38.2925 52.9862C37.1675 52.9712 38.0075 52.2588 38.2925 52.9862V52.9862ZM39.0125 53.5037C38.6 53.5787 38.9075 53.0987 39.0125 53.5037V53.5037ZM44.9225 57.2312C44.21 57.1787 45.4925 56.8112 44.9225 57.2312V57.2312ZM13.3927 36.9663C11.6527 36.5163 15.0202 36.3363 13.3927 36.9663V36.9663ZM36.98 51.8313C35.9451 52.0938 36.965 50.7813 36.98 51.8313V51.8313ZM12.7477 35.4739C11.7802 35.2414 13.7902 35.1214 12.7477 35.4739V35.4739ZM15.7852 36.9438C15.4627 37.0713 15.7627 36.5988 15.7852 36.9438V36.9438ZM52.7749 59.6237C54.1174 59.3537 57.1774 60.3062 57.6724 59.2712C56.0374 59.2337 52.025 58.1237 51.8375 59.5337L52.1974 59.5937L52.7749 59.6312V59.6237ZM16.7452 37.1838C15.9127 37.1463 16.7677 36.1189 16.7452 37.1838V37.1838ZM8.77272 31.6489C7.39273 31.3414 8.41273 29.6164 8.77272 31.6489V31.6489ZM10.6777 32.1289C8.93772 31.5439 10.7002 31.4764 10.6777 32.1289V32.1289ZM11.7652 32.6614C11.4502 32.4064 11.5177 32.9839 11.7652 32.6614V32.6614ZM18.5977 37.0488C17.8327 36.8313 18.9202 36.7563 18.5977 37.0488V37.0488ZM11.0377 31.4614C8.83272 31.2289 10.8502 29.9239 11.0377 31.4614V31.4614ZM7.13773 28.9339C6.75524 29.2039 7.08523 28.2289 7.13773 28.9339V28.9339ZM7.72273 28.4914C7.22773 28.5964 7.62523 27.6514 7.72273 28.4914V28.4914ZM10.9252 30.4039C12.2827 29.8714 8.45773 29.3014 10.6477 30.3064L10.9252 30.4039ZM53.8024 56.8937C52.6999 56.6462 54.6724 56.0987 53.8024 56.8937V56.8937ZM58.9849 59.5787C58.1074 59.7137 59.3299 58.5512 58.9849 59.5787V59.5787ZM11.2477 28.7239C10.1752 28.9189 11.3902 27.7264 11.2477 28.7239V28.7239ZM6.69524 25.6714C6.44774 24.2689 6.48524 21.8014 8.82522 22.6339C5.69774 23.2564 10.9927 26.5189 10.3177 23.9389C11.6302 24.0064 12.8902 23.1589 12.2002 24.4414C14.7877 24.1564 16.5877 21.9064 19.0852 22.2214C21.0351 21.9664 23.1651 21.7714 25.2651 20.9839C26.9901 20.8564 28.6551 19.004 27.7101 17.9015C25.3551 17.699 22.8876 17.999 20.2852 18.5165C17.3977 19.1165 14.7802 20.2564 11.8702 20.7439C9.03522 21.1264 12.4402 21.7939 11.6302 21.9439C10.1527 22.4539 13.3927 22.8064 11.4352 23.3464C10.2277 23.1139 8.96772 22.7014 9.48522 21.4264C6.77024 21.7789 4.37775 22.9039 6.53024 25.6714H6.68774H6.69524ZM13.2427 22.3339C13.8802 19.9865 16.6552 24.2614 14.2852 22.6489C14.0002 22.4389 13.5352 22.2664 13.2427 22.3339ZM13.3627 21.2014C13.8502 21.5839 14.2852 20.5189 13.3627 21.2014V21.2014ZM14.5327 21.2164C14.6152 20.1365 17.2027 21.7864 14.9602 21.6064L14.5327 21.2164ZM16.1302 20.5789C16.2952 21.1864 16.7152 19.8965 16.1302 20.5789V20.5789ZM16.5352 20.3014C17.5027 19.1315 22.0326 19.559 18.7177 20.1889C17.8327 19.5215 17.1502 20.5864 16.5352 20.3014ZM22.4451 19.394C22.2951 16.2065 25.3776 20.5264 22.4451 19.394V19.394ZM24.1251 19.379C24.7401 17.774 26.5026 18.734 24.4101 19.0565C24.4551 19.229 24.3501 19.889 24.1251 19.379ZM10.5877 27.8989C8.64522 26.9239 12.4177 26.7739 10.5877 27.8989V27.8989ZM11.9452 28.2739C10.5502 27.9964 12.5902 27.5914 11.9452 28.2739V28.2739ZM7.95523 25.4464C6.71774 25.1389 9.00522 24.6439 7.95523 25.4464V25.4464ZM62.0374 59.2787C61.2349 59.6987 62.0674 58.3487 62.0374 59.2787V59.2787ZM56.5474 55.5287C55.8424 55.6187 56.7049 54.4562 56.5474 55.5287V55.5287ZM63.5524 59.6462C65.0149 59.6462 67.9849 59.1887 64.8049 59.1962C64.3024 59.2712 61.8949 59.2562 63.5524 59.6462ZM13.1377 27.6214C14.3227 27.5389 14.9902 26.3164 12.9052 26.3839C9.68022 26.0464 15.7552 27.4864 12.4927 27.0739C12.0577 27.3664 13.1077 27.6964 13.1377 27.6139V27.6214ZM14.1802 28.1464C13.8127 28.5514 14.0602 27.3889 14.1802 28.1464V28.1464ZM15.4177 24.8464C14.7052 24.6739 15.9352 24.2089 15.4177 24.8464V24.8464ZM11.4802 18.2615C13.5952 17.5415 16.4827 16.7315 17.4802 18.614C16.4677 17.3915 17.0677 16.1915 18.0277 17.9765C19.3852 19.784 20.0602 17.1515 19.1827 16.544C20.1877 17.7965 21.3351 18.3815 19.8577 16.6265C21.4626 14.699 16.6477 16.8815 15.5527 16.859C15.0277 17.099 10.1152 18.1115 11.4802 18.2615ZM12.7177 15.8915C13.9252 14.984 16.8877 16.4315 14.9827 14.984C14.7952 14.819 10.8202 16.079 12.7177 15.8915ZM17.1127 16.0715C18.5227 16.109 16.5052 14.174 18.1852 15.0515C17.9077 14.1515 16.2277 13.979 15.4027 13.619C14.9377 14.444 16.3477 16.079 17.1127 16.0715ZM13.4827 12.0815C12.6277 12.419 13.9702 11.4215 13.4827 12.0815V12.0815ZM15.2827 12.5165C17.5552 12.2165 14.7052 11.534 14.8252 12.494L15.2827 12.5165ZM11.9302 9.89151C10.3327 7.79903 14.9377 10.244 13.3177 8.05403C11.9452 6.96653 10.6327 9.28402 11.9302 9.89151ZM32.4726 20.9539C33.2076 19.649 29.4426 19.199 31.9776 20.4889C32.2101 20.5639 32.1576 21.0439 32.4726 20.9539Z" fill="black"/>
</svg>
