<svg width="72" height="72" viewBox="0 0 72 72" fill="none" xmlns="http://www.w3.org/2000/svg">
<path d="M35.5851 67.0416C33.74 67.0416 31.9774 66.5916 29.8697 65.5866C28.5571 64.9565 23.3818 62.8039 18.3865 60.7187C12.4986 58.2661 6.94071 55.9484 5.11059 55.0709C3.738 54.4258 0.00275608 52.6707 0.00275608 48.9055V42.65C-0.0197454 41.885 0.100262 41.165 0.377781 40.5049C0.137765 39.9124 0.00275608 39.2523 0.00275608 38.5173V32.2019C-0.0122449 31.3843 0.137765 30.6268 0.467787 29.9217C0.182768 29.2917 0.00275608 28.5716 0.00275608 27.7541V21.4987C-0.0797494 18.7985 1.69037 16.7208 5.2831 15.3182L7.15073 14.5907C13.2486 12.2055 27.5371 6.61767 31.0023 5.36509C33.3425 4.51753 35.2026 4 37.2202 4C39.2378 4 41.0155 4.54754 42.6281 5.14008C44.3457 5.77012 49.4385 7.77275 54.8314 9.88789C59.8192 11.8455 64.9795 13.8706 66.5471 14.4482C67.9197 14.9507 72.0375 16.4658 71.9925 20.4936V26.779C72.0075 27.6191 71.8275 28.3691 71.5275 29.0216C71.85 29.7042 72 30.4467 71.9925 31.2493V31.2643L72 37.5497C72 38.3073 71.85 38.9898 71.595 39.5973C71.8425 40.1899 71.9925 40.8649 71.985 41.63V41.645L71.9925 47.9304C71.9925 51.5231 68.7148 53.2707 67.1397 54.1108V54.0958L67.1097 54.1333C65.3321 55.0634 60.6218 57.0885 55.1689 59.4361C50.1061 61.6113 44.3682 64.0865 42.5831 65.0165C39.8979 66.4266 37.7302 67.0567 35.5701 67.0567L35.5851 67.0416Z" fill="white"/>
<path d="M65.0443 50.1244C61.6841 51.8795 44.2679 59.0425 40.5177 61.0151C36.7674 62.9877 34.7573 62.9277 31.8171 61.5252C28.8769 60.1226 10.4107 52.6071 7.05798 51.0095C5.37037 50.2144 4.50781 49.5394 4.50781 48.9093V42.5339C4.50781 42.5339 28.6444 37.2986 32.5372 35.8885C36.4299 34.4784 37.78 34.4409 41.0877 35.6559C44.3954 36.871 64.2342 40.4488 67.512 41.6413V47.9268C67.512 48.5793 66.7619 49.2168 65.0443 50.1319V50.1244Z" fill="#A32422"/>
<path d="M65.0398 43.7864C61.6796 45.534 44.2634 52.6969 40.5132 54.6321C36.7629 56.5672 34.7528 56.5447 31.8126 55.1496C28.8724 53.7545 10.4062 46.239 7.05348 44.6489C3.70076 43.0588 3.64075 41.9487 6.92597 40.6662C10.2112 39.3836 28.6399 32.1681 32.5327 30.7505C36.4254 29.3329 37.7755 29.3029 41.0832 30.518C44.3909 31.7331 61.7396 38.626 64.9948 39.8261C68.25 41.0262 68.4 42.0087 65.0323 43.7564V43.7939L65.0398 43.7864Z" fill="#DC382C"/>
<path d="M65.0446 39.7469C61.6844 41.502 44.2682 48.6575 40.518 50.5926C36.7677 52.5278 34.7726 52.5053 31.8399 51.1027C28.9072 49.6926 10.411 42.2221 7.06579 40.632C5.37818 39.8294 4.51562 39.1619 4.51562 38.5243V32.1714C4.51562 32.1714 28.6522 26.9136 32.545 25.5035C36.4377 24.0934 37.7878 24.0559 41.0955 25.286C44.4033 26.516 64.2421 30.0638 67.5198 31.2564V37.5418C67.5198 38.1943 66.7697 38.8469 65.0521 39.7544L65.0446 39.7469Z" fill="#A32422"/>
<path d="M65.042 33.3752C61.6818 35.1303 44.2656 42.2933 40.5154 44.2209C36.7651 46.156 34.755 46.141 31.8148 44.7384C28.8746 43.3358 10.4084 35.8503 7.05567 34.2527C3.71045 32.6551 3.65044 31.5601 6.92816 30.2775C10.2059 28.9949 28.6421 21.7644 32.5348 20.3768C36.4276 18.9967 37.7777 18.9067 41.0854 20.1068C44.3931 21.3069 61.7418 28.2598 64.997 29.4224C68.2522 30.585 68.4022 31.6126 65.0345 33.3527V33.3677L65.042 33.3752Z" fill="#DC382C"/>
<path d="M65.0446 28.9764C61.6844 30.7315 44.2682 37.8945 40.518 39.8221C36.7677 41.7498 34.7726 41.7348 31.8399 40.3397C28.9072 38.9446 10.411 31.4516 7.06579 29.854C5.37818 29.0589 4.51562 28.3839 4.51562 27.7463V21.3709C4.51562 21.3709 28.6522 16.1356 32.545 14.7255C36.4377 13.3154 37.7878 13.2779 41.0955 14.4855C44.4033 15.7006 64.2346 19.2783 67.5123 20.4784V26.7638C67.5198 27.4238 66.7697 28.0689 65.0521 28.9689L65.0446 28.9764Z" fill="#A32422"/>
<path d="M65.037 22.6137C61.6768 24.3313 44.2607 31.5468 40.5104 33.4594C36.7602 35.372 34.75 35.372 31.8098 33.9769C28.8771 32.5818 10.4034 25.0814 7.05071 23.4912C3.70549 21.9011 3.63798 20.7911 6.9232 19.5085C10.2084 18.2259 28.6371 10.9954 32.5299 9.59283C36.4226 8.19024 37.7727 8.14524 41.0804 9.36032C44.3882 10.5754 61.7368 17.4759 64.992 18.6684C68.2472 19.861 68.3972 20.8586 65.0295 22.5987V22.6137H65.037Z" fill="#DC382C"/>
<path d="M36.9924 13.5611L41.1477 12.196L40.0226 14.8961L44.2529 16.4787L38.8 17.0413L37.5774 19.989L35.6048 16.7038L29.2969 16.1337L34.0072 14.4386L32.5896 11.8359L36.9924 13.5611Z" fill="white"/>
<path d="M37.256 30.7464L27.0703 26.5161L41.6663 24.2734L37.256 30.7464Z" fill="white"/>
<path d="M23.1361 18.1172C27.4414 18.1172 30.9367 19.4748 30.9367 21.1324C30.9367 22.79 27.4264 24.1476 23.1361 24.1476C18.8459 24.1476 15.3281 22.79 15.3281 21.1324C15.3281 19.4748 18.8234 18.1172 23.1361 18.1172Z" fill="white"/>
<path d="M50.7188 17.2852L59.3593 20.6979L50.7263 24.1106L50.7188 17.2852Z" fill="#741113"/>
<path d="M50.7194 17.2852L50.7269 24.1106L49.7893 24.4781L41.1562 21.0654L50.7194 17.2852Z" fill="#AC2724"/>
</svg>
