<svg width="72" height="72" viewBox="0 0 72 72" fill="none" xmlns="http://www.w3.org/2000/svg">
<path d="M67.9875 48.6375C67.695 48.345 67.3875 48.075 67.08 47.8125C70.0875 45.3 72 41.5275 72 37.3125C72 29.7675 65.8575 23.625 58.3125 23.625C53.355 23.625 48.9 26.34 46.5 30.4275C44.1 26.34 39.645 23.625 34.6875 23.625C34.5225 23.625 34.35 23.625 34.185 23.6325C34.875 21.7575 35.25 19.7325 35.25 17.625C35.25 7.905 27.345 0 17.625 0C7.905 0 0 7.905 0 17.625C0 24.6825 4.245 30.9675 10.5 33.7425V49.125C10.5 56.235 15.48 62.2125 22.1325 63.7425C24.2625 68.625 29.1675 72 34.6875 72C39.7275 72 44.13 69.255 46.5 65.19C48.9 69.2775 53.355 72 58.3125 72C65.8575 72 72 65.8575 72 58.3125C72 54.6675 70.575 51.2325 67.9875 48.6375ZM22.9425 51.3075C22.4325 50.715 22.1175 49.95 22.1175 49.125V42.975C22.155 42.975 22.1925 42.99 22.2375 42.99C23.1 44.865 24.375 46.5075 25.9425 47.8125C24.7575 48.795 23.745 49.98 22.9425 51.3075ZM46.5075 51.4275C45.6975 50.0475 44.6625 48.8175 43.4475 47.805C44.655 46.7925 45.6975 45.5775 46.5 44.205C47.31 45.585 48.36 46.8 49.575 47.8125C48.36 48.825 47.31 50.0475 46.5 51.4275H46.5075Z" fill="white"/>
<path d="M17.625 4.5C10.395 4.5 4.5 10.395 4.5 17.625C4.5 23.9625 9.015 29.265 15 30.4875V49.125C15 54.915 19.7625 59.625 25.5 59.625H25.5975C26.235 64.065 30.075 67.5 34.6875 67.5C39.7425 67.5 43.875 63.375 43.875 58.3125C43.875 53.25 39.75 49.125 34.6875 49.125C30.075 49.125 26.235 52.56 25.5975 57H25.5C21.2025 57 17.625 53.4825 17.625 49.125V35.895C19.3425 37.6425 21.69 38.6325 24.1425 38.625H25.5975C26.235 43.065 30.075 46.5 34.6875 46.5C39.3 46.5 43.14 43.065 43.7775 38.625H49.2225C49.86 43.065 53.7 46.5 58.3125 46.5C63.3675 46.5 67.5 42.3675 67.5 37.3125C67.5 32.2575 63.375 28.125 58.3125 28.125C53.7 28.125 49.86 31.56 49.2225 36H43.7775C43.14 31.56 39.3 28.125 34.6875 28.125C30.075 28.125 26.235 31.56 25.5975 36H24.1425C20.9775 36 18.3375 33.7425 17.7525 30.75C24.93 30.6825 30.7575 24.8175 30.7575 17.625C30.7575 10.4325 24.855 4.5 17.625 4.5ZM17.625 7.125C23.415 7.1175 28.1175 11.7975 28.125 17.5875V17.625C28.1325 23.415 23.4525 28.1175 17.6625 28.125H17.625C11.835 28.1325 7.14 23.4525 7.125 17.6625V17.625C7.1175 11.835 11.7975 7.14 17.58 7.125H17.6175H17.625ZM15.06 10.8375C13.6875 10.8375 12.375 11.9475 12.375 13.44V21.8325C12.375 23.82 14.6925 25.11 16.3875 24.0675L23.1 19.905C24.705 18.9075 24.7125 16.4625 23.115 15.45L16.4025 11.22C16.005 10.965 15.5325 10.83 15.06 10.8375ZM15 13.44L21.7125 17.67L15 21.8325V13.44ZM34.6875 30.75C38.3025 30.7425 41.235 33.66 41.25 37.2675V37.305C41.2575 40.92 38.34 43.86 34.725 43.8675H34.6875C31.0725 43.875 28.1325 40.9575 28.125 37.3425V37.305C28.1175 33.69 31.035 30.7575 34.65 30.7425H34.6875V30.75ZM58.3125 30.75C61.9275 30.7425 64.86 33.66 64.875 37.2675V37.305C64.8825 40.92 61.965 43.86 58.35 43.8675H58.3125C54.6975 43.875 51.7575 40.9575 51.75 37.3425V37.305C51.7425 33.69 54.66 30.7575 58.275 30.7425H58.3125V30.75ZM37.365 34.17C37.02 34.17 36.6825 34.305 36.435 34.5525L33.3375 37.65L32.31 36.6225C31.8 36.1125 30.9675 36.1125 30.4575 36.6225C29.9475 37.1325 29.9475 37.965 30.4575 38.4825L32.415 40.4325C32.925 40.9425 33.7575 40.9425 34.2675 40.4325L38.295 36.4125C38.805 35.9025 38.805 35.07 38.295 34.5525C38.0475 34.305 37.7175 34.17 37.365 34.17ZM60.9825 34.17C60.6375 34.17 60.3 34.305 60.0525 34.5525L56.955 37.65L55.9275 36.6225C55.4175 36.1125 54.585 36.1125 54.075 36.6225C53.565 37.1325 53.565 37.965 54.075 38.4825L56.0325 40.4325C56.5425 40.9425 57.375 40.9425 57.885 40.4325L61.9125 36.4125C62.4225 35.9025 62.4225 35.07 61.9125 34.5525C61.665 34.305 61.335 34.17 60.9825 34.17ZM34.6875 51.75C38.3025 51.7425 41.235 54.66 41.25 58.275V58.3125C41.2575 61.9275 38.34 64.86 34.7325 64.875H34.695C31.08 64.8825 28.14 61.965 28.1325 58.35V58.3125C28.125 54.6975 31.0425 51.7575 34.6575 51.75H34.695H34.6875ZM32.0625 56.3475C30.9825 56.3475 30.09 57.24 30.09 58.32C30.09 59.4 30.9825 60.2925 32.0625 60.2925C33.1425 60.2925 34.035 59.4075 34.035 58.32C34.035 57.2325 33.1425 56.3475 32.0625 56.3475ZM37.3125 56.3475C36.2325 56.3475 35.34 57.24 35.34 58.32C35.34 59.4 36.2325 60.2925 37.3125 60.2925C38.3925 60.2925 39.285 59.4075 39.285 58.32C39.285 57.2325 38.3925 56.3475 37.3125 56.3475ZM32.0625 57.66C32.43 57.66 32.7225 57.945 32.7225 58.32C32.7225 58.695 32.4375 58.9725 32.0625 58.9725C31.6875 58.9725 31.4025 58.6875 31.4025 58.32C31.4025 57.9525 31.6875 57.66 32.0625 57.66ZM37.3125 57.66C37.68 57.66 37.9725 57.945 37.9725 58.32C37.9725 58.695 37.6875 58.9725 37.3125 58.9725C36.9375 58.9725 36.66 58.6875 36.66 58.32C36.66 57.9525 36.945 57.66 37.3125 57.66Z" fill="#457CBE"/>
<path d="M58.3128 49.125C53.6928 49.125 49.8528 52.5675 49.2153 57.015C49.1703 57.015 49.1253 57.015 49.0878 57.015L47.7603 57.06C47.0328 57.0825 46.4703 57.69 46.4928 58.41C46.5153 59.1375 47.1228 59.7 47.8503 59.6775L49.1778 59.6325C49.1778 59.6325 49.2078 59.6325 49.2228 59.6325C49.8678 64.0725 53.7003 67.5 58.3128 67.5C63.3678 67.5 67.5003 63.375 67.5003 58.3125C67.5003 53.25 63.3753 49.125 58.3128 49.125ZM58.3128 51.75C61.9278 51.7425 64.8603 54.66 64.8753 58.275V58.3125C64.8828 61.9275 61.9653 64.86 58.3578 64.875H58.3203C54.7053 64.8825 51.7653 61.965 51.7578 58.35V58.3125C51.7503 54.6975 54.6678 51.7575 58.2828 51.75H58.3203H58.3128Z" fill="#84B3E1"/>
</svg>
