<svg width="72" height="72" viewBox="0 0 72 72" fill="none" xmlns="http://www.w3.org/2000/svg">
<path d="M45.485 36C51.395 32.7225 55.4 26.4225 55.4 19.2C55.4 8.61 46.79 0 36.2 0C25.61 0 17 8.61 17 19.2C17 26.4225 21.0125 32.7225 26.915 36C21.0125 39.2775 17 45.5775 17 52.8C17 63.39 25.61 72 36.2 72C46.79 72 55.4 63.39 55.4 52.8C55.4 45.5775 51.3875 39.2775 45.485 36Z" fill="white"/>
<path d="M36.2 33.9C44.3186 33.9 50.9 27.3186 50.9 19.2C50.9 11.0814 44.3186 4.5 36.2 4.5C28.0814 4.5 21.5 11.0814 21.5 19.2C21.5 27.3186 28.0814 33.9 36.2 33.9Z" fill="#A30000"/>
<path d="M36.2 67.5016C44.3186 67.5016 50.9 60.9202 50.9 52.8016C50.9 44.683 44.3186 38.1016 36.2 38.1016C28.0814 38.1016 21.5 44.683 21.5 52.8016C21.5 60.9202 28.0814 67.5016 36.2 67.5016Z" fill="#A30000"/>
</svg>
