<svg width="72" height="72" viewBox="0 0 72 72" fill="none" xmlns="http://www.w3.org/2000/svg">
<path d="M63.81 8.8875L38.205 0.3525C37.89 0.225 37.5675 0.1275 37.23 0.075C36.96 0.0225 36.69 0 36.42 0C35.7975 0 35.1825 0.1275 34.605 0.3825L9.075 8.8875C7.2375 9.495 6 11.2275 6 13.1625L6.06 35.4825C6.06 35.67 6.075 35.85 6.0975 36.0375C6.1575 36.5175 7.68 47.9325 16.0425 58.215C22.4625 66.1125 31.395 70.2675 34.2 71.43C34.875 71.805 35.6325 72 36.39 72C36.5325 72 36.6675 72 36.81 71.9775C37.41 71.9325 37.995 71.7675 38.535 71.4825C41.16 70.4025 50.3025 66.24 56.835 58.2075C65.1975 47.925 66.72 36.51 66.78 36.03C66.8025 35.85 66.8175 35.6625 66.8175 35.475L66.8775 13.155C66.8775 11.2125 65.64 9.4875 63.8025 8.8725L63.81 8.8875Z" fill="white"/>
<path d="M36.4875 4.53V4.5L36.435 4.515L36.3825 4.5V4.53L10.5 13.155L10.56 35.475C10.56 35.475 11.8875 45.975 19.53 55.3725C25.8825 63.1875 35.34 67.05 36.39 67.4625V67.5C36.39 67.5 36.405 67.5 36.4425 67.4775C36.4725 67.4925 36.495 67.5 36.495 67.5V67.4625C37.545 67.05 46.995 63.1875 53.355 55.3725C60.9975 45.9675 62.325 35.475 62.325 35.475L62.385 13.155L36.4875 4.53Z" fill="#2E8ABF"/>
<path d="M36.4453 22.582V29.0695H32.1328V26.8945C32.1328 24.517 34.0678 22.582 36.4453 22.582Z" fill="#87C9E8"/>
<path d="M40.7578 26.8945V29.0695H36.4453V22.582C38.8228 22.582 40.7578 24.517 40.7578 26.8945Z" fill="#69BCE2"/>
<path d="M26.4347 32.0927V43.7327C26.4347 45.4052 27.7922 46.7552 29.4572 46.7552H36.4397V64.5677L36.3872 64.5902V64.5377C35.3597 64.0502 26.8772 59.8727 21.2222 53.1677C14.3822 45.0602 13.2947 35.0177 13.2947 35.0177L13.2422 15.7727L36.3872 7.44766V7.41016L36.4397 7.43266V20.8052C33.0797 20.8052 30.3497 23.5352 30.3497 26.8952V29.0702H29.4572C27.7922 29.0702 26.4347 30.4277 26.4347 32.0927Z" fill="#87C9E8"/>
<path d="M59.6428 15.7727L59.5903 35.0177C59.5903 35.0177 58.5028 45.0602 51.6628 53.1677C46.0078 59.8727 37.5253 64.0502 36.4978 64.5377V64.5902C36.4978 64.5902 36.4753 64.5827 36.4453 64.5677V46.7552H43.4278C45.0928 46.7552 46.4503 45.4052 46.4503 43.7327V32.0927C46.4503 30.4277 45.0928 29.0702 43.4278 29.0702H42.5353V26.8952C42.5353 23.5352 39.8053 20.8052 36.4453 20.8052V7.43266L36.4978 7.41016V7.44766L59.6428 15.7727Z" fill="url(#paint0_linear_2633_2808)"/>
<path d="M43.425 29.0697H42.5325V26.8947C42.5325 23.5347 39.8025 20.8047 36.4425 20.8047C33.0825 20.8047 30.3525 23.5347 30.3525 26.8947V29.0697H29.46C27.795 29.0697 26.4375 30.4272 26.4375 32.0922V43.7322C26.4375 45.4047 27.795 46.7547 29.46 46.7547H43.425C45.09 46.7547 46.4475 45.4047 46.4475 43.7322V32.0922C46.4475 30.4272 45.09 29.0697 43.425 29.0697ZM40.755 29.0697H32.13V26.8947C32.13 24.5172 34.065 22.5822 36.4425 22.5822C38.82 22.5822 40.755 24.5172 40.755 26.8947V29.0697Z" fill="#CDE8FF"/>
<defs>
<linearGradient id="paint0_linear_2633_2808" x1="36.4453" y1="36.0002" x2="59.6428" y2="36.0002" gradientUnits="userSpaceOnUse">
<stop offset="0.2" stop-color="#69BCE2"/>
<stop offset="0.81" stop-color="#69BCE2"/>
</linearGradient>
</defs>
</svg>
