<svg width="72" height="72" viewBox="0 0 72 72" fill="none" xmlns="http://www.w3.org/2000/svg">
<path d="M72 53.47H58.38V38.9425H60.465L58.38 33.8275V33.2725H58.155L46.275 4.06H43.3575L43.395 4H25.9575L21.75 10.6375L17.565 4H0L13.785 25.6375V67.6375H27.8775V61.8025H35.46V67.63H49.3275V67.5175H71.9925V53.47H72Z" fill="white"/>
<path d="M35.85 7.89844L24.96 24.2334V34.5834H18.2775V24.2334L7.875 7.89844H15.3825L21.9975 18.4134L28.665 7.89844H35.85Z" fill="black"/>
<path d="M47.0616 28.7095H34.9791L32.5191 34.642H27.1641L38.4816 7.95703H43.9566L54.8166 34.6495H49.0941L47.0616 28.717V28.7095ZM45.0591 23.3845L41.3541 13.5895L37.2216 23.3845H45.0591Z" fill="#CB171E"/>
<path d="M18.2734 37.582V63.742H23.8909V45.697L29.7634 57.8245H34.1809L40.2559 45.2695V63.7345H45.6409V37.582H38.2909L31.7659 49.4095L25.5559 37.582H18.2734Z" fill="black"/>
<path d="M68.6241 58.0606H54.8166V37.5781H49.1016V63.6256H68.6241V58.0606Z" fill="black"/>
</svg>
